<svg width="512" height="512" viewBox="0 0 512 512" fill="none" xmlns="http://www.w3.org/2000/svg">
<rect width="512" height="512" rx="128" fill="#1DE5A9"/>
<path d="M430.928 195.776H452.816L459.216 202.56V234.176L481.872 257.6L459.216 281.024V312.64L452.816 319.424H430.928V309.952H449.104V278.336L469.072 257.6L449.104 236.864V205.248H430.928V195.776Z" fill="black"/>
<path d="M101.968 302V250.544C101.968 244.272 103.824 239.28 107.536 235.568C111.312 231.792 116.688 229.904 123.664 229.904C125.904 229.904 128.112 230.128 130.288 230.576C132.464 231.024 134.288 231.696 135.76 232.592L131.248 245.456C130.48 245.008 129.616 244.656 128.656 244.4C127.696 244.08 126.736 243.92 125.776 243.92C123.856 243.92 122.352 244.496 121.264 245.648C120.24 246.736 119.728 248.432 119.728 250.736V254.48L120.208 262.064V302H101.968ZM94.384 265.52V251.888H132.112V265.52H94.384ZM187.144 303.792C179.976 303.792 173.363 302.64 167.304 300.336C161.245 298.032 155.955 294.789 151.432 290.608C146.995 286.341 143.539 281.392 141.064 275.76C138.589 270.128 137.352 263.941 137.352 257.2C137.352 250.459 138.589 244.272 141.064 238.64C143.539 233.008 146.995 228.101 151.432 223.92C155.955 219.653 161.245 216.368 167.304 214.064C173.363 211.76 179.976 210.608 187.144 210.608C194.397 210.608 201.011 211.76 206.984 214.064C213.043 216.368 218.291 219.653 222.728 223.92C227.165 228.101 230.621 233.008 233.096 238.64C235.656 244.272 236.936 250.459 236.936 257.2C236.936 263.941 235.656 270.171 233.096 275.888C230.621 281.52 227.165 286.427 222.728 290.608C218.291 294.789 213.043 298.032 206.984 300.336C201.011 302.64 194.397 303.792 187.144 303.792ZM187.144 282.8C190.557 282.8 193.715 282.203 196.616 281.008C199.603 279.813 202.163 278.107 204.296 275.888C206.515 273.584 208.221 270.853 209.416 267.696C210.696 264.539 211.336 261.04 211.336 257.2C211.336 253.275 210.696 249.776 209.416 246.704C208.221 243.547 206.515 240.859 204.296 238.64C202.163 236.336 199.603 234.587 196.616 233.392C193.715 232.197 190.557 231.6 187.144 231.6C183.731 231.6 180.531 232.197 177.544 233.392C174.643 234.587 172.083 236.336 169.864 238.64C167.731 240.859 166.024 243.547 164.744 246.704C163.549 249.776 162.952 253.275 162.952 257.2C162.952 261.04 163.549 264.539 164.744 267.696C166.024 270.853 167.731 273.584 169.864 275.888C172.083 278.107 174.643 279.813 177.544 281.008C180.531 282.203 183.731 282.8 187.144 282.8ZM294.882 303.792C287.799 303.792 281.229 302.683 275.17 300.464C269.197 298.16 263.991 294.917 259.554 290.736C255.202 286.555 251.789 281.648 249.314 276.016C246.839 270.299 245.602 264.027 245.602 257.2C245.602 250.373 246.839 244.144 249.314 238.512C251.789 232.795 255.202 227.845 259.554 223.664C263.991 219.483 269.197 216.283 275.17 214.064C281.229 211.76 287.799 210.608 294.882 210.608C303.159 210.608 310.541 212.059 317.026 214.96C323.597 217.861 329.058 222.043 333.41 227.504L317.282 242.096C314.381 238.683 311.181 236.08 307.682 234.288C304.269 232.496 300.429 231.6 296.162 231.6C292.493 231.6 289.122 232.197 286.05 233.392C282.978 234.587 280.333 236.336 278.114 238.64C275.981 240.859 274.274 243.547 272.994 246.704C271.799 249.861 271.202 253.36 271.202 257.2C271.202 261.04 271.799 264.539 272.994 267.696C274.274 270.853 275.981 273.584 278.114 275.888C280.333 278.107 282.978 279.813 286.05 281.008C289.122 282.203 292.493 282.8 296.162 282.8C300.429 282.8 304.269 281.904 307.682 280.112C311.181 278.32 314.381 275.717 317.282 272.304L333.41 286.896C329.058 292.272 323.597 296.453 317.026 299.44C310.541 302.341 303.159 303.792 294.882 303.792ZM375.323 303.792C367.984 303.792 360.902 302.896 354.075 301.104C347.334 299.227 341.83 296.837 337.563 293.936L345.883 275.248C349.894 277.808 354.502 279.941 359.707 281.648C364.998 283.269 370.246 284.08 375.451 284.08C378.95 284.08 381.766 283.781 383.899 283.184C386.032 282.501 387.568 281.648 388.507 280.624C389.531 279.515 390.043 278.235 390.043 276.784C390.043 274.736 389.104 273.115 387.227 271.92C385.35 270.725 382.918 269.744 379.931 268.976C376.944 268.208 373.616 267.44 369.947 266.672C366.363 265.904 362.736 264.923 359.067 263.728C355.483 262.533 352.198 260.997 349.211 259.12C346.224 257.157 343.792 254.64 341.915 251.568C340.038 248.411 339.099 244.443 339.099 239.664C339.099 234.288 340.55 229.424 343.451 225.072C346.438 220.72 350.875 217.221 356.763 214.576C362.651 211.931 369.99 210.608 378.779 210.608C384.667 210.608 390.427 211.291 396.059 212.656C401.776 213.936 406.854 215.856 411.291 218.416L403.483 237.232C399.216 234.928 394.992 233.221 390.811 232.112C386.63 230.917 382.576 230.32 378.651 230.32C375.152 230.32 372.336 230.704 370.203 231.472C368.07 232.155 366.534 233.093 365.595 234.288C364.656 235.483 364.187 236.848 364.187 238.384C364.187 240.347 365.083 241.925 366.875 243.12C368.752 244.229 371.184 245.168 374.171 245.936C377.243 246.619 380.571 247.344 384.155 248.112C387.824 248.88 391.451 249.861 395.035 251.056C398.704 252.165 402.032 253.701 405.019 255.664C408.006 257.541 410.395 260.059 412.187 263.216C414.064 266.288 415.003 270.171 415.003 274.864C415.003 280.069 413.51 284.891 410.523 289.328C407.622 293.68 403.227 297.179 397.339 299.824C391.536 302.469 384.198 303.792 375.323 303.792Z" fill="black"/>
<path d="M58.984 199.776H80.872V209.248H63.08V240.864L42.728 261.6L63.08 282.336V313.952H80.872V323.424H58.984L52.584 316.64V285.024L29.928 261.6L52.584 238.176V206.56L58.984 199.776Z" fill="black"/>
</svg>
